HIERARCHY
ROOT hip
{
  OFFSET 0 0 0
  CHANNELS 6 Xposition Yposition Zposition Zrotation Yrotation Xrotation
  JOINT abdomen
  {
    OFFSET 0 20.6881 -0.73152
    CHANNELS 3 Zrotation Xrotation Yrotation
    JOINT chest
    {
      OFFSET 0 11.7043 -0.48768
      CHANNELS 3 Zrotation Xrotation Yrotation
      JOINT neck
      {
        OFFSET 0 22.1894 -2.19456
        CHANNELS 3 Zrotation Xrotation Yrotation
        JOINT head
        {
          OFFSET -0.24384 7.07133 1.2192
          CHANNELS 3 Zrotation Xrotation Yrotation
          JOINT leftEye
          {
            OFFSET 4.14528 8.04674 8.04672
            CHANNELS 3 Zrotation Xrotation Yrotation
            End Site
            {
              OFFSET 1 0 0
            }
          }
          JOINT rightEye
          {
            OFFSET -3.6576 8.04674 8.04672
            CHANNELS 3 Zrotation Xrotation Yrotation
            End Site
            {
              OFFSET 1 0 0
            }
          }
        }
      }
      JOINT rCollar
      {
        OFFSET -2.68224 19.2634 -4.8768
        CHANNELS 3 Zrotation Xrotation Yrotation
        JOINT rShldr
        {
          OFFSET -8.77824 -1.95073 1.46304
          CHANNELS 3 Zrotation Xrotation Yrotation
          JOINT rForeArm
          {
            OFFSET -28.1742 -1.7115 0.48768
            CHANNELS 3 Zrotation Xrotation Yrotation
            JOINT rHand
            {
              OFFSET -22.5879 0.773209 7.07136
              CHANNELS 3 Zrotation Xrotation Yrotation
              JOINT rThumb1
              {
                OFFSET -1.2192 -0.487915 3.41376
                CHANNELS 3 Zrotation Xrotation Yrotation
                JOINT rThumb2
                {
                  OFFSET -3.37035 -0.52449 3.41376
                  CHANNELS 3 Zrotation Xrotation Yrotation
                  End Site
                  {
                    OFFSET -1.78271 -1.18214 1.43049
                  }
                }
              }
              JOINT rIndex1
              {
                OFFSET -7.75947 0.938293 5.60832
                CHANNELS 3 Zrotation Xrotation Yrotation
                JOINT rIndex2
                {
                  OFFSET -2.54057 -0.884171 1.56538
                  CHANNELS 3 Zrotation Xrotation Yrotation
                  End Site
                  {
                    OFFSET -1.62519 -0.234802 1.16502
                  }
                }
              }
              JOINT rMid1
              {
                OFFSET -8.24714 1.18213 3.41376
                CHANNELS 3 Zrotation Xrotation Yrotation
                JOINT rMid2
                {
                  OFFSET -3.10165 -0.590103 1.0647
                  CHANNELS 3 Zrotation Xrotation Yrotation
                  End Site
                  {
                    OFFSET -2.48547 -0.328903 0.83742
                  }
                }
              }
              JOINT rRing1
              {
                OFFSET -8.82822 0.546677 1.51678
                CHANNELS 3 Zrotation Xrotation Yrotation
                JOINT rRing2
                {
                  OFFSET -2.60934 -0.819778 -0.0198488
                  CHANNELS 3 Zrotation Xrotation Yrotation
                  End Site
                  {
                    OFFSET -2.33842 -0.294052 0.168128
                  }
                }
              }
              JOINT rPinky1
              {
                OFFSET -8.27202 -0.0477905 -0.4584
                CHANNELS 3 Zrotation Xrotation Yrotation
                JOINT rPinky2
                {
                  OFFSET -1.82734 -0.647385 -0.700984
                  CHANNELS 3 Zrotation Xrotation Yrotation
                  End Site
                  {
                    OFFSET -1.69225 -0.51767 -0.607171
                  }
                }
              }
            }
          }
        }
      }
      JOINT lCollar
      {
        OFFSET 2.68224 19.2634 -4.8768
        CHANNELS 3 Zrotation Xrotation Yrotation
        JOINT lShldr
        {
          OFFSET 8.77824 -1.95073 1.46304
          CHANNELS 3 Zrotation Xrotation Yrotation
          JOINT lForeArm
          {
            OFFSET 28.1742 -1.7115 0.48768
            CHANNELS 3 Zrotation Xrotation Yrotation
            JOINT lHand
            {
              OFFSET 22.5879 0.773209 7.07136
              CHANNELS 3 Zrotation Xrotation Yrotation
              JOINT lThumb1
              {
                OFFSET 1.2192 -0.487915 3.41376
                CHANNELS 3 Zrotation Xrotation Yrotation
                JOINT lThumb2
                {
                  OFFSET 3.37035 -0.52449 3.41376
                  CHANNELS 3 Zrotation Xrotation Yrotation
                  End Site
                  {
                    OFFSET 1.78271 -1.18214 1.43049
                  }
                }
              }
              JOINT lIndex1
              {
                OFFSET 7.75947 0.938293 5.60832
                CHANNELS 3 Zrotation Xrotation Yrotation
                JOINT lIndex2
                {
                  OFFSET 2.54057 -0.884171 1.56538
                  CHANNELS 3 Zrotation Xrotation Yrotation
                  End Site
                  {
                    OFFSET 1.62519 -0.234802 1.16502
                  }
                }
              }
              JOINT lMid1
              {
                OFFSET 8.24714 1.18213 3.41376
                CHANNELS 3 Zrotation Xrotation Yrotation
                JOINT lMid2
                {
                  OFFSET 3.10165 -0.590103 1.0647
                  CHANNELS 3 Zrotation Xrotation Yrotation
                  End Site
                  {
                    OFFSET 2.48547 -0.328903 0.83742
                  }
                }
              }
              JOINT lRing1
              {
                OFFSET 8.82822 0.546677 1.51678
                CHANNELS 3 Zrotation Xrotation Yrotation
                JOINT lRing2
                {
                  OFFSET 2.60934 -0.819778 -0.0198488
                  CHANNELS 3 Zrotation Xrotation Yrotation
                  End Site
                  {
                    OFFSET 2.33842 -0.294052 0.168128
                  }
                }
              }
              JOINT lPinky1
              {
                OFFSET 8.27202 -0.0477905 -0.4584
                CHANNELS 3 Zrotation Xrotation Yrotation
                JOINT lPinky2
                {
                  OFFSET 1.82734 -0.647385 -0.700984
                  CHANNELS 3 Zrotation Xrotation Yrotation
                  End Site
                  {
                    OFFSET 1.69225 -0.51767 -0.607171
                  }
                }
              }
            }
          }
        }
      }
    }
  }
  JOINT rButtock
  {
    OFFSET -8.77824 4.35084 1.2192
    CHANNELS 3 Zrotation Xrotation Yrotation
    JOINT rThigh
    {
      OFFSET 0 -1.70687 -2.19456
      CHANNELS 3 Zrotation Xrotation Yrotation
      JOINT rShin
      {
        OFFSET 0 -36.8199 0.73152
        CHANNELS 3 Zrotation Xrotation Yrotation
        JOINT rFoot
        {
          OFFSET 0.73152 -45.1104 -5.12064
          CHANNELS 3 Zrotation Xrotation Yrotation
          End Site
          {
            OFFSET -1.1221 -3.69964 12.103
          }
        }
      }
    }
  }
  JOINT lButtock
  {
    OFFSET 8.77824 4.35084 1.2192
    CHANNELS 3 Zrotation Xrotation Yrotation
    JOINT lThigh
    {
      OFFSET 0 -1.70687 -2.19456
      CHANNELS 3 Zrotation Xrotation Yrotation
      JOINT lShin
      {
        OFFSET 0 -36.8199 0.73152
        CHANNELS 3 Zrotation Xrotation Yrotation
        JOINT lFoot
        {
          OFFSET -0.73152 -45.1104 -5.12064
          CHANNELS 3 Zrotation Xrotation Yrotation
          End Site
          {
            OFFSET 1.1221 -3.69964 12.103
          }
        }
      }
    }
  }
}
MOTION
Frames:	6
Frame Time:	0.00833333
-2.23725 82.4855 46.2313 0.0 0.0 0.0 -4.35903 0.00629546 -0.117465 -1.20168 0.0324824 -0.207697 9.15503e-14 1.59028e-15 -1.98785e-16 2.71667e-13 9.54166e-15 -6.49156e-16 -0.0 0.0 0.0 -0.0 0.0 0.0 4.53251e-14 3.60685e-16 9.93923e-17 9.53504e-13 7.1314e-15 1.39149e-15 1.63967e-11 -4.69052e-12 -1.78111e-13 1.88031e-10 6.17621e-12 -1.49486e-13 4.43463e-10 3.22009e-12 -7.28347e-13 7.65842e-10 5.55643e-12 -1.2762e-12 4.43466e-10 3.21872e-12 -7.37889e-13 7.73091 5.47488 0.417314 4.43463e-10 3.21972e-12 -7.25166e-13 2.90554 0.965183 0.102902 4.4347e-10 3.22071e-12 -7.28347e-13 10.2786 0.731801 0.0259123 4.43454e-10 3.2223e-12 -7.18805e-13 2.22167 -0.733487 -0.20892 4.51249e-14 3.58744e-16 -1.98785e-16 9.5181e-13 6.57853e-15 -1.98785e-16 1.64522e-11 5.12984e-12 -2.09917e-13 1.87905e-10 -3.68167e-12 -9.54166e-14 4.43337e-10 3.14375e-12 -7.18805e-13 7.65642e-10 5.43239e-12 -1.26348e-12 4.43336e-10 3.14318e-12 -7.02903e-13 -7.73091 5.47488 -0.417314 4.43339e-10 3.14368e-12 -7.18805e-13 -2.90554 0.965183 -0.102902 4.43337e-10 3.14358e-12 -7.23576e-13 -10.2786 0.731801 -0.0259123 4.43349e-10 3.14835e-12 -7.37889e-13 -2.22167 -0.733487 0.20892 -2.03217e-16 0.0 -3.88251e-19 -2.89167 -1.94436 0.0304734 -0.00794788 -2.07875 -0.064874 -0.418785 4.00219 0.126602 2.03217e-16 0.0 3.88251e-19 -3.72534 -11.2507 0.483795 -0.0143129 14.7726 -0.388796 0.54479 -3.54244 0.0125137
-4.00088 82.299 44.8377 -6.641 -3.0998 5.7555 -2.92614 -1.47501 0.198044 -1.56374 -2.97013 -0.216254 -3.38361 3.75092 -4.05857 5.23436 -0.383415 -8.00132 -0.0 0.0 0.0 -0.0 0.0 0.0 -7.60483e-14 -1.44851e-14 2.63079e-15 22.8484 -3.55112 -4.35591 -3.32348 -1.36718 5.33577 0.357657 13.335 1.69601 3.69779e-10 -2.85271e-10 8.24949e-10 6.69844e-10 -5.0737e-10 1.41814e-09 3.69783e-10 -2.85273e-10 8.2494e-10 7.73091 5.47488 0.417314 3.6978e-10 -2.85272e-10 8.24949e-10 2.90554 0.965183 0.102902 3.69784e-10 -2.8527e-10 8.24946e-10 10.2786 0.731801 0.0259123 3.69772e-10 -2.85268e-10 8.24957e-10 2.22167 -0.733487 -0.20892 -7.62122e-14 -1.4487e-14 2.35863e-15 -22.4628 -5.96558 4.23817 3.25716 -1.32936 -5.23921 -0.109156 7.34083 -1.00138 1.10625e-09 1.61703e-10 9.79113e-11 1.91207e-09 2.80785e-10 1.51362e-10 1.10624e-09 1.61703e-10 9.79245e-11 -7.73091 5.47488 -0.417314 1.10625e-09 1.61702e-10 9.79112e-11 -2.90554 0.965183 -0.102902 1.10625e-09 1.61703e-10 9.7907e-11 -10.2786 0.731801 -0.0259123 1.10626e-09 1.61707e-10 9.78936e-11 -2.22167 -0.733487 0.20892 -2.03217e-16 0.0 -3.88251e-19 -1.45854 -1.73155 6.59703 0.00524722 -1.88364 0.0338017 -0.815093 1.08007 -5.80048 2.03217e-16 0.0 3.88251e-19 -4.41172 -9.03693 -10.3806 -0.0116075 14.0977 -0.298495 1.25167 -8.29584 13.1269
-3.99723 82.2992 44.8385 -6.6422 -3.0396 5.7476 -1.39437 -3.04013 0.532479 -1.94783 -6.14536 -0.226014 -6.38034 7.65307 -8.40624 10.6513 -0.760052 -16.4609 -0.0 0.0 0.0 -0.0 0.0 0.0 -2.10704e-13 -3.73127e-14 7.1811e-15 46.413 -7.22952 -9.01532 -6.56218 -2.77349 10.9876 -0.220622 27.3849 3.82323 2.43435e-10 -5.90411e-10 1.76701e-09 4.87595e-10 -1.0519e-09 3.03964e-09 2.43439e-10 -5.90415e-10 1.767e-09 7.73091 5.47488 0.417314 2.43435e-10 -5.90413e-10 1.76701e-09 2.90554 0.965183 0.102902 2.43437e-10 -5.90411e-10 1.76701e-09 10.2786 0.731801 0.0259123 2.4343e-10 -5.90409e-10 1.76702e-09 2.22167 -0.733487 -0.20892 -2.10829e-13 -3.73147e-14 6.93572e-15 -45.2323 -12.1498 8.86802 6.44078 -2.69972 -10.7925 0.0633862 15.0802 -2.11426 1.8515e-09 3.21654e-10 1.41181e-10 3.19945e-09 5.58078e-10 2.06443e-10 1.8515e-09 3.21654e-10 1.41192e-10 -7.73091 5.47488 -0.417314 1.8515e-09 3.21653e-10 1.41181e-10 -2.90554 0.965183 -0.102902 1.8515e-09 3.21653e-10 1.41178e-10 -10.2786 0.731801 -0.0259123 1.85151e-09 3.21656e-10 1.41165e-10 -2.22167 -0.733487 0.20892 -2.03217e-16 0.0 -3.88251e-19 0.00182772 -1.48653 13.5347 0.018473 -1.67702 0.138124 -1.88615 -1.95304 -12.0664 2.03217e-16 0.0 3.88251e-19 -4.23583 -6.50505 -21.7315 -0.00637079 13.3844 -0.20365 4.32049 -12.279 27.3785
-3.9921 82.2988 44.839 -6.6275 -3.0071 5.7452 -0.011286 -4.43719 0.831358 -2.29073 -8.97535 -0.23538 -8.5447 11.0251 -12.3816 15.3922 -1.06109 -24.0078 -0.0 0.0 0.0 -0.0 0.0 0.0 -3.18795e-13 -4.41767e-14 7.69359e-15 66.9181 -10.4054 -13.2646 -9.21603 -3.95948 16.0421 -1.8982 39.8425 6.45359 2.22413e-10 -8.62252e-10 2.4763e-09 4.77848e-10 -1.53322e-09 4.25697e-09 2.22417e-10 -8.62256e-10 2.4763e-09 7.73091 5.47488 0.417314 2.22413e-10 -8.62254e-10 2.4763e-09 2.90554 0.965183 0.102902 2.22412e-10 -8.62251e-10 2.4763e-09 10.2786 0.731801 0.0259123 2.22409e-10 -8.6225e-10 2.47631e-09 2.22167 -0.733487 -0.20892 -3.18886e-13 -4.41785e-14 7.47345e-15 -64.6568 -17.4959 13.2699 9.05089 -3.8549 -15.75 0.49329 21.9945 -3.21361 2.43206e-09 4.78822e-10 2.95172e-10 4.20494e-09 8.31489e-10 4.56614e-10 2.43206e-09 4.78822e-10 2.95179e-10 -7.73091 5.47488 -0.417314 2.43206e-09 4.7882e-10 2.95171e-10 -2.90554 0.965183 -0.102902 2.43206e-09 4.78821e-10 2.95168e-10 -10.2786 0.731801 -0.0259123 2.43207e-09 4.78823e-10 2.95156e-10 -2.22167 -0.733487 0.20892 -2.03217e-16 0.0 -3.88251e-19 1.26153 -1.26191 19.7261 0.0296207 -1.49342 0.231092 -3.39705 -4.52354 -17.7079 2.03217e-16 0.0 3.88251e-19 -3.31107 -4.29681 -31.8 0.000343453 12.7478 -0.119573 8.73439 -14.2592 40.4236
-3.98866 82.2972 44.8331 -6.6221 -2.9802 5.771 0.965408 -5.41456 1.03911 -2.52853 -10.9423 -0.242264 -9.76541 13.2885 -15.2302 18.6527 -1.25601 -29.2695 -0.0 0.0 0.0 -0.0 0.0 0.0 -3.60474e-13 -1.11316e-14 -1.88845e-15 80.9195 -12.5599 -16.3028 -10.9367 -4.73025 19.5702 -4.11589 48.465 9.12896 4.64693e-10 -1.05084e-09 2.60367e-09 8.99354e-10 -1.8565e-09 4.46387e-09 4.64699e-10 -1.05085e-09 2.60366e-09 7.73091 5.47488 0.417314 4.64693e-10 -1.05085e-09 2.60366e-09 2.90554 0.965183 0.102902 4.64692e-10 -1.05084e-09 2.60366e-09 10.2786 0.731801 0.0259123 4.64691e-10 -1.05084e-09 2.60367e-09 2.22167 -0.733487 -0.20892 -3.60542e-13 -1.11329e-14 -2.08724e-15 -77.663 -21.1243 16.5788 10.7349 -4.60006 -19.187 0.975999 26.8722 -4.08376 2.6009e-09 6.29033e-10 7.25962e-10 4.50568e-09 1.09519e-09 1.19451e-09 2.6009e-09 6.29033e-10 7.25968e-10 -7.73091 5.47488 -0.417314 2.6009e-09 6.2903e-10 7.25962e-10 -2.90554 0.965183 -0.102902 2.6009e-09 6.29032e-10 7.25959e-10 -10.2786 0.731801 -0.0259123 2.6009e-09 6.29033e-10 7.25949e-10 -2.22167 -0.733487 0.20892 -2.03217e-16 0.0 -3.88251e-19 2.12559 -1.11072 24.0546 0.0370033 -1.36734 0.295712 -4.75579 -6.19817 -21.7051 2.03217e-16 0.0 3.88251e-19 -2.26218 -2.89051 -38.8283 0.00615842 12.3029 -0.0612756 12.4513 -14.4925 49.5658
-3.98804 82.2962 44.828 -6.634 -2.9393 5.7926 1.36003 -5.80277 1.11667 -2.61784 -11.7008 -0.244811 -10.1764 14.1521 -16.3682 19.9262 -1.36586 -31.3276 -0.0 0.0 0.0 -0.0 0.0 0.0 -2.98767e-13 9.59005e-14 -3.27952e-14 86.328 -13.4484 -17.5192 -11.5772 -5.01373 20.9424 -5.36456 51.8736 10.5179 1.2362e-09 -1.15107e-09 1.77671e-09 2.19579e-09 -2.00217e-09 3.00962e-09 1.2362e-09 -1.15107e-09 1.7767e-09 7.73091 5.47488 0.417314 1.2362e-09 -1.15107e-09 1.7767e-09 2.90554 0.965183 0.102902 1.2362e-09 -1.15107e-09 1.7767e-09 10.2786 0.731801 0.0259123 1.2362e-09 -1.15107e-09 1.77671e-09 2.22167 -0.733487 -0.20892 -2.98829e-13 9.59004e-14 -3.29769e-14 -82.6092 -22.6216 17.9906 11.3385 -4.85923 -20.4762 1.22413 28.914 -4.47769 2.13485e-09 8.17718e-10 1.75042e-09 3.72334e-09 1.43053e-09 2.97232e-09 2.13485e-09 8.17719e-10 1.75042e-09 -7.73091 5.47488 -0.417314 2.13486e-09 8.17716e-10 1.75042e-09 -2.90554 0.965183 -0.102902 2.13485e-09 8.17717e-10 1.75041e-09 -10.2786 0.731801 -0.0259123 2.13486e-09 8.17719e-10 1.75041e-09 -2.22167 -0.733487 0.20892 -2.03217e-16 0.0 -3.88251e-19 2.4851 -1.06405 25.7799 0.0397255 -1.32222 0.320614 -5.36557 -6.82238 -23.3335 2.03217e-16 0.0 3.88251e-19 -1.75209 -2.39984 -41.6183 0.00868025 12.1261 -0.0386047 13.99 -14.2935 53.1271
